<?xml version="1.0" ?><!DOCTYPE svg  PUBLIC '-//W3C//DTD SVG 1.0//EN'  'http://www.w3.org/TR/2001/REC-SVG-20010904/DTD/svg10.dtd'><svg height="32" style="overflow:visible;enable-background:new 0 0 32 32" viewBox="0 0 32 32" width="32" xml:space="preserve" xmlns="http://www.w3.org/2000/svg" xmlns:xlink="http://www.w3.org/1999/xlink"><g><g id="Block_8_"><path d="M27.3,4.7c-6.2-6.2-16.4-6.2-22.6,0c-6.2,6.2-6.2,16.4,0,22.6       c6.2,6.2,16.4,6.2,22.6,0C33.6,21.1,33.6,10.9,27.3,4.7z M24.5,7.5c4.2,4.2,4.6,10.7,1.3,15.4L9.1,6.2       C13.7,2.9,20.3,3.3,24.5,7.5z M7.5,24.5C3.3,20.3,2.9,13.7,6.2,9.1l16.7,16.7C18.3,29.1,11.7,28.7,7.5,24.5z" id="Block" style="fill:#FF3939;"/></g></g></svg>